<svg width="52" height="59" viewBox="0 0 52 59" fill="none" xmlns="http://www.w3.org/2000/svg">
<path d="M28.5943 42.8974C21.4303 42.8974 15.6226 36.8992 15.6226 29.5C15.6226 22.1008 21.4303 16.1026 28.5943 16.1026M28.5943 42.8974V29.5M28.5943 42.8974V58H24.5849V50.2879C21.8943 49.7375 19.3932 48.6437 17.1927 47.122L11.8491 52.641L6.17878 46.7847L11.5243 41.2637C10.0551 38.994 8.99906 36.4149 8.46702 33.641H1V25.359H8.46702C8.99906 22.5851 10.0551 20.006 11.5243 17.7363L6.30545 12.3461L11.9757 6.48978L17.1927 11.8779C19.3932 10.3562 21.8943 9.26252 24.5849 8.71208V1H28.5943V16.1026M28.5943 16.1026V29.5M28.5943 29.5H42.5177M28.8302 16.3462H38.2641L45.5755 8.79487M28.3585 42.6538H37.7925L45.1038 50.2051M49.1132 29.2564C49.1132 31.1398 47.6349 32.6667 45.8113 32.6667C43.9877 32.6667 42.5094 31.1398 42.5094 29.2564C42.5094 27.373 43.9877 25.8462 45.8113 25.8462C47.6349 25.8462 49.1132 27.373 49.1132 29.2564ZM51 6.84615C51 8.72959 49.5217 10.2564 47.6981 10.2564C45.8745 10.2564 44.3962 8.72959 44.3962 6.84615C44.3962 4.96272 45.8745 3.4359 47.6981 3.4359C49.5217 3.4359 51 4.96272 51 6.84615ZM50.5283 52.1538C50.5283 50.2704 49.05 48.7436 47.2264 48.7436C45.4028 48.7436 43.9245 50.2704 43.9245 52.1538C43.9245 54.0373 45.4028 55.5641 47.2264 55.5641C49.05 55.5641 50.5283 54.0373 50.5283 52.1538Z" stroke="#11467A" stroke-width="2"/>
</svg>
