<svg width="19" height="21" viewBox="0 0 19 21" fill="none" xmlns="http://www.w3.org/2000/svg">
<path d="M17.122 15.0734C16.8864 14.9294 16.5786 15.0036 16.4346 15.2392C16.2906 15.4748 16.3648 15.7826 16.6004 15.9266L17.122 15.0734ZM2.39957 15.9266C2.63518 15.7826 2.70942 15.4748 2.56539 15.2392C2.42136 15.0036 2.1136 14.9294 1.878 15.0734L2.39957 15.9266ZM9.92489 17.7764L10.1661 18.2144L9.92489 17.7764ZM9.07511 17.7764L9.31627 17.3384L9.07511 17.7764ZM16.6004 15.9266C17.2989 16.3536 17.5 16.7399 17.5 17H18.5C18.5 16.2069 17.9156 15.5585 17.122 15.0734L16.6004 15.9266ZM17.5 17C17.5 17.2601 17.2989 17.6464 16.6004 18.0734L17.122 18.9266C17.9156 18.4415 18.5 17.7931 18.5 17H17.5ZM16.6004 18.0734C15.9224 18.4879 14.9114 18.8511 13.6502 19.1081L13.8498 20.088C15.1729 19.8184 16.308 19.4242 17.122 18.9266L16.6004 18.0734ZM13.6502 19.1081C12.3948 19.3639 10.9628 19.5 9.5 19.5V20.5C11.0213 20.5 12.5209 20.3588 13.8498 20.088L13.6502 19.1081ZM9.5 19.5C8.03717 19.5 6.60518 19.3639 5.34983 19.1081L5.15017 20.088C6.47914 20.3588 7.9787 20.5 9.5 20.5V19.5ZM5.34983 19.1081C4.08862 18.8511 3.07758 18.4879 2.39957 18.0734L1.878 18.9266C2.69205 19.4242 3.82705 19.8184 5.15017 20.088L5.34983 19.1081ZM2.39957 18.0734C1.70112 17.6464 1.5 17.2601 1.5 17H0.5C0.5 17.7931 1.08439 18.4415 1.878 18.9266L2.39957 18.0734ZM1.5 17C1.5 16.7399 1.70112 16.3536 2.39957 15.9266L1.878 15.0734C1.08438 15.5585 0.5 16.2069 0.5 17H1.5ZM16.5 8.5C16.5 10.8199 15.2301 12.8008 13.7026 14.3401C12.1798 15.8747 10.4574 16.9124 9.68372 17.3384L10.1661 18.2144C10.9792 17.7667 12.7943 16.6752 14.4124 15.0445C16.0258 13.4186 17.5 11.1981 17.5 8.5H16.5ZM9.31627 17.3384C8.54259 16.9124 6.82016 15.8747 5.29742 14.3401C3.76993 12.8007 2.5 10.8199 2.5 8.5H1.5C1.5 11.1981 2.97422 13.4186 4.58758 15.0445C6.2057 16.6752 8.02082 17.7667 8.83394 18.2144L9.31627 17.3384ZM2.5 8.5C2.5 4.30336 5.88213 1.5 9.5 1.5V0.5C5.38589 0.5 1.5 3.69664 1.5 8.5H2.5ZM9.5 1.5C13.246 1.5 16.5 4.29781 16.5 8.5H17.5C17.5 3.70219 13.754 0.5 9.5 0.5V1.5ZM9.68372 17.3384C9.56582 17.4033 9.43418 17.4033 9.31627 17.3384L8.83394 18.2144C9.25215 18.4447 9.74785 18.4447 10.1661 18.2144L9.68372 17.3384ZM13 8.5C13 10.433 11.433 12 9.5 12V13C11.9853 13 14 10.9853 14 8.5H13ZM9.5 12C7.567 12 6 10.433 6 8.5H5C5 10.9853 7.01472 13 9.5 13V12ZM6 8.5C6 6.567 7.567 5 9.5 5V4C7.01472 4 5 6.01472 5 8.5H6ZM9.5 5C11.433 5 13 6.567 13 8.5H14C14 6.01472 11.9853 4 9.5 4V5Z" fill="#F05836"/>
</svg>
