<svg width="17" height="18" viewBox="0 0 17 18" fill="none" xmlns="http://www.w3.org/2000/svg">
<path d="M12.9492 11.7698L15.4469 14.4144C15.7574 14.7431 15.7574 15.2569 15.4469 15.5856C13.623 17.5168 10.6246 17.7313 8.54436 16.0793L7.23571 15.0401C5.53164 13.6869 4.02823 12.0987 2.77044 10.323L1.61679 8.69429C0.0951424 6.54608 0.300913 3.62256 2.10847 1.70868C2.47177 1.32401 3.08379 1.32401 3.44709 1.70868L5.90708 4.31338C6.27106 4.69877 6.27106 5.30123 5.90708 5.68662L4.91531 6.73673C4.76535 6.89551 4.72804 7.12997 4.8213 7.32745L4.89529 7.48415C5.97306 9.76648 7.76117 11.6383 9.99185 12.8192C10.1936 12.926 10.4419 12.8851 10.5986 12.7191L11.4952 11.7698C11.8898 11.3519 12.5546 11.3519 12.9492 11.7698Z" stroke="#F05836"/>
</svg>
