<svg width="44" height="48" viewBox="0 0 44 48" fill="none" xmlns="http://www.w3.org/2000/svg">
<path d="M22.6013 21.427L39.3176 11.8867C33.7957 2.43239 21.5659 -0.806907 12.0017 4.65155C2.43741 10.11 -0.839542 22.1992 4.68238 31.6536C5.99715 33.9046 7.6922 35.8034 9.641 37.3163L9.641 45.2432L26.0271 41.1375C28.074 40.7212 30.0893 39.9783 31.9983 38.8887C40.154 34.2342 43.738 24.7581 41.1928 16.2057M31.5375 11.4134C27.1007 7.41895 20.3928 6.51996 14.9179 9.64454C8.14325 13.5109 5.82208 22.0741 9.73344 28.771C13.6448 35.4678 22.3076 37.7623 29.0822 33.8959C34.5571 30.7713 37.1234 24.5793 35.8424 18.7839" stroke="#F05836" stroke-width="3" stroke-linecap="round"/>
</svg>
