<svg width="50" height="48" viewBox="0 0 50 48" fill="none" xmlns="http://www.w3.org/2000/svg">
<path d="M15.3484 24.1827L31.8786 29.9965C32.1478 30.0911 32.4323 29.8977 32.4323 29.6199V7.62984C32.4323 7.35203 32.1478 7.15857 31.8786 7.25326L15.3484 13.067M15.3484 24.1827V13.067M15.3484 24.1827H13.3871M15.3484 13.067H7.19355C6.96551 13.067 6.78065 13.2464 6.78065 13.4676V23.7821C6.78065 24.0034 6.96551 24.1827 7.19355 24.1827H13.3871M13.3871 24.1827V30.041M36.6129 15.17C37.5763 16.0713 38.9252 18.735 36.6129 22.1799M40.7419 11.3646C42.8925 13.7346 45.9032 19.9667 40.7419 25.9352M1 1.40056V38.2025C1 38.4237 1.18486 38.603 1.4129 38.603H28.6483C28.7578 38.603 28.8629 38.6452 28.9403 38.7204L37.3532 46.8819C37.6133 47.1342 38.0581 46.9555 38.0581 46.5986V39.0036C38.0581 38.7824 38.2429 38.603 38.471 38.603H48.5871C48.8151 38.603 49 38.4237 49 38.2025V1.40057C49 1.17934 48.8151 1 48.5871 1H1.4129C1.18486 1 1 1.17934 1 1.40056Z" stroke="#11467A" stroke-width="2" stroke-linecap="round" stroke-linejoin="round"/>
</svg>
